<?xml version="1.0" encoding="UTF-8"?>
<svg version="1.1" xmlns="http://www.w3.org/2000/svg" width="500" height="500">
<path d="M0 0 C165 0 330 0 500 0 C500 165 500 330 500 500 C335 500 170 500 0 500 C0 335 0 170 0 0 Z " fill="#A5A094" transform="translate(0,0)"/>
<path d="M0 0 C0.70321381 0.00248749 1.40642761 0.00497498 2.13095093 0.00753784 C27.46933268 0.14606579 50.96699009 6.36914023 69.89453125 23.97265625 C73.18983669 27.42955285 75.77698688 31.16381466 78.125 35.3125 C78.49882812 35.91964844 78.87265625 36.52679688 79.2578125 37.15234375 C81.47996483 42.68770519 80.96697008 50.10595526 79.47265625 55.796875 C76.82270318 61.66544061 72.2162896 65.56869561 66.6875 68.6875 C63.093145 69.56417195 59.82133309 69.43779943 56.125 69.3125 C56.29 68.1575 56.455 67.0025 56.625 65.8125 C57.78391885 54.86331144 58.62033472 44.20737353 53.125 34.3125 C52.650625 33.39855469 52.17625 32.48460937 51.6875 31.54296875 C44.11807163 18.24188188 30.87032123 12.15697505 16.70703125 7.890625 C-4.53630846 3.13417375 -29.14402316 5.13847269 -48.04296875 16.37109375 C-57.06199466 22.55379151 -64.35031494 29.73844483 -67.875 40.3125 C-68.05060807 43.22298781 -68.15218869 46.08799369 -68.1875 49 C-68.23100586 50.16692383 -68.23100586 50.16692383 -68.27539062 51.35742188 C-68.35694388 58.87914096 -65.83481693 64.88261958 -60.5625 70.3125 C-44.86075129 85.11285202 -21.99079996 88.36105751 -1.61865234 91.87402344 C56.07997623 101.86879957 56.07997623 101.86879957 74.125 126.4375 C83.05620761 140.14940268 85.30357117 155.13230667 82.4375 171.15625 C77.81038717 187.3511449 67.56353505 199.10033256 53.06103516 207.26464844 C25.0290803 222.43654633 -11.83057203 225.02108917 -42.42236328 216.61230469 C-52.9557562 213.4057003 -62.19139684 209.15412673 -70.875 202.3125 C-71.70515625 201.6628125 -72.5353125 201.013125 -73.390625 200.34375 C-80.59300414 194.33381774 -87.15426606 186.66254532 -88.24609375 177.04296875 C-88.38863651 169.43789353 -88.16838047 164.03544799 -82.875 158.3125 C-79.14501577 154.51416527 -75.25239462 151.49557373 -69.78515625 151.19921875 C-67.81476971 151.18883007 -65.84428281 151.24574465 -63.875 151.3125 C-64.04 152.323125 -64.205 153.33375 -64.375 154.375 C-66.22159298 169.9470154 -64.45514307 183.53156667 -54.875 196.3125 C-46.13493343 205.97459557 -32.60993226 212.1641388 -19.875 214.3125 C-15.1899021 214.53642427 -10.50242546 214.49765151 -5.8125 214.5 C-4.55244141 214.51224609 -3.29238281 214.52449219 -1.99414062 214.53710938 C9.31922938 214.55464948 19.66578628 213.39585008 30.1875 209.125 C30.95553955 208.81820312 31.7235791 208.51140625 32.51489258 208.1953125 C45.89495228 202.67834247 57.27192838 194.65582403 63.09765625 181.0390625 C66.62205368 170.90846897 66.3672641 160.94896468 61.796875 151.23046875 C52.19653301 134.47473168 36.80237724 126.72408309 18.75 121.8125 C9.32374775 119.35660686 -0.26761585 117.72539302 -9.84643555 115.99664307 C-33.66578863 111.67578402 -61.33227422 106.09720798 -76.8828125 85.67578125 C-84.87733788 73.68399318 -86.91451796 61.63149384 -85.875 47.3125 C-82.55411304 32.39697342 -73.22822955 21.66945979 -60.70654297 13.59326172 C-42.666779 2.62754412 -20.68388402 -0.11750289 0 0 Z " fill="#020202" transform="translate(141.875,141.6875)"/>
<path d="M0 0 C7.28246961 6.23933139 14.48890336 13.75554344 15.37890625 23.76171875 C15.71504474 35.7204919 15.71504474 35.7204919 11.73828125 41.00390625 C7.64638638 45.223061 2.96493059 49.52085657 -3.15625 49.78515625 C-4.35701172 49.76775391 -4.35701172 49.76775391 -5.58203125 49.75 C-6.39027344 49.74097656 -7.19851563 49.73195313 -8.03125 49.72265625 C-8.64613281 49.71105469 -9.26101563 49.69945312 -9.89453125 49.6875 C-9.65476562 48.48867187 -9.65476562 48.48867187 -9.41015625 47.265625 C-7.52638015 34.19336057 -7.64251542 20.94179807 -14.95703125 9.625 C-23.96017999 -2.34787213 -35.70020578 -9.59737751 -50.33984375 -12.83984375 C-71.20434431 -15.61413448 -90.77491131 -11.78437971 -107.76953125 1.1875 C-109.1529504 2.34417089 -110.52840853 3.5104508 -111.89453125 4.6875 C-112.54550781 5.19539063 -113.19648438 5.70328125 -113.8671875 6.2265625 C-133.39019195 21.98469333 -145.00461145 49.42523784 -147.65869141 73.84277344 C-150.39374325 106.83327452 -144.98981762 139.89295061 -123.265625 165.8984375 C-110.3415871 180.78902558 -92.85234225 193.35687056 -72.58154297 194.85888672 C-53.95777554 195.85475325 -36.27615007 192.89263033 -21.58203125 180.5 C-10.44855435 169.81257586 -4.0347371 155.1467287 -3.51953125 139.75 C-3.66139902 127.3081965 -8.32877513 115.74687597 -16.89453125 106.6875 C-20.37695499 103.68225968 -23.99428351 101.12009896 -27.89453125 98.6875 C-28.84392578 98.07455078 -28.84392578 98.07455078 -29.8125 97.44921875 C-40.42817924 91.37976859 -53.9263186 90.06150665 -65.89453125 89.6875 C-65.89453125 88.0375 -65.89453125 86.3875 -65.89453125 84.6875 C-39.16453125 84.6875 -12.43453125 84.6875 15.10546875 84.6875 C15.43546875 86.3375 15.76546875 87.9875 16.10546875 89.6875 C2.90546875 90.0175 -10.29453125 90.3475 -23.89453125 90.6875 C-20.59453125 91.6775 -17.29453125 92.6675 -13.89453125 93.6875 C-1.21600577 99.65039208 7.55255385 108.31071515 13.2109375 121.20703125 C17.71613042 134.97642369 16.02095341 150.4830136 9.8203125 163.35546875 C0.5032178 180.09509571 -14.76706141 191.22779809 -32.76953125 196.9765625 C-40.4738022 199.17101673 -47.89415567 200.46418855 -55.89453125 200.6875 C-56.53648437 200.70796387 -57.1784375 200.72842773 -57.83984375 200.74951172 C-89.92092097 201.65817519 -117.06735265 191.65821699 -140.69921875 170.1328125 C-160.61166675 151.10291067 -172.39514462 124.72720251 -173.23046875 97.234375 C-173.26063387 94.63555911 -173.27322802 92.03648832 -173.26953125 89.4375 C-173.26865509 88.75774109 -173.26777893 88.07798218 -173.26687622 87.37762451 C-173.2214679 76.67225886 -172.53500305 66.79878224 -168.89453125 56.6875 C-168.64251953 55.97464844 -168.39050781 55.26179688 -168.13085938 54.52734375 C-164.76299736 45.23947488 -160.73634984 36.70142335 -154.89453125 28.6875 C-154.50281738 28.14528809 -154.11110352 27.60307617 -153.70751953 27.04443359 C-136.25020848 3.1165105 -110.98365198 -13.41298835 -81.5390625 -18.80859375 C-53.15539883 -22.4770545 -22.78845618 -18.20616202 0 0 Z " fill="#040303" transform="translate(410.89453125,161.3125)"/>
</svg>
