<?xml version="1.0" encoding="UTF-8"?>
<svg version="1.1" xmlns="http://www.w3.org/2000/svg" width="500" height="500">
<path d="M0 0 C165 0 330 0 500 0 C500 165 500 330 500 500 C335 500 170 500 0 500 C0 335 0 170 0 0 Z " fill="#A6A195" transform="translate(0,0)"/>
<path d="M0 0 C0.57363281 0.40992188 1.14726562 0.81984375 1.73828125 1.2421875 C6.92461556 5.12858789 10.95637079 10.86911237 13 17 C13.53385142 22.96476294 13.55270149 27.95745595 10 33 C5.71477689 37.30548421 2.62373158 39.95552997 -3.6875 40.0625 C-5.3271875 40.0315625 -5.3271875 40.0315625 -7 40 C-6.835 38.741875 -6.67 37.48375 -6.5 36.1875 C-6.32179835 34.459484 -6.1559164 32.73016913 -6 31 C-5.92007813 30.13375 -5.84015625 29.2675 -5.7578125 28.375 C-5.30985737 19.31049625 -8.16453845 11.1959528 -13.8125 4.0625 C-23.17764206 -5.68007852 -37.42054437 -9.75525907 -50.6015625 -10.203125 C-68.60198861 -10.48482739 -84.57075624 -7.89129436 -98.15625 4.98046875 C-104.57371452 12.00976781 -105.50594044 19.18945142 -105.390625 28.453125 C-104.65932799 35.09330184 -101.71518005 38.81277163 -96.609375 42.92578125 C-82.32828791 52.67617258 -65.50019305 55.70815946 -48.75 58.375 C-29.11323361 61.65832582 -6.28716278 66.06392846 6.125 83.25 C14.00503043 94.429699 16.46642878 105.36382384 15 119 C11.95738692 131.64799248 4.7759684 140.93988277 -6 148 C-28.41429017 161.04170206 -57.31349779 163.43652376 -82.421875 157.97265625 C-96.11220506 154.25115823 -110.35296002 147.0552956 -118.37890625 134.9140625 C-121.49238635 128.90406955 -122.07326859 122.65241479 -121 116 C-118.98687911 111.32196909 -115.73274001 107.93612091 -111 106 C-109.4478017 105.77201452 -107.8893024 105.58467804 -106.328125 105.4296875 C-105.51762695 105.34702637 -104.70712891 105.26436523 -103.87207031 105.17919922 C-103.25428711 105.12006348 -102.63650391 105.06092773 -102 105 C-102.02618408 105.57331055 -102.05236816 106.14662109 -102.0793457 106.73730469 C-102.61007327 120.1358245 -102.91740767 131.69015323 -93.5625 142.3125 C-82.68655318 152.179126 -69.3247585 155.36876968 -55.0625 155.25 C-54.13759766 155.25773438 -53.21269531 155.26546875 -52.25976562 155.2734375 C-36.23360446 155.22851483 -19.96794386 150.5148555 -8.1953125 139.27734375 C-6.64972397 137.58949956 -5.31204919 135.87377025 -4 134 C-3.5875 133.44183594 -3.175 132.88367188 -2.75 132.30859375 C1.26966036 125.84643144 0.8844605 118.331712 0 111 C-1.14438038 107.22759567 -2.75607184 104.22850888 -5 101 C-5.4846875 100.29359375 -5.969375 99.5871875 -6.46875 98.859375 C-19.09183087 82.64737898 -42.81743921 80.10147922 -61.65869141 76.62472534 C-76.16440396 73.93337945 -90.90179075 70.95354836 -103 62 C-103.77601562 61.45085937 -104.55203125 60.90171875 -105.3515625 60.3359375 C-113.05323056 54.28278702 -118.65988073 44.7907537 -120 35 C-120.96383033 23.97125292 -118.78726642 14.47969756 -111.671875 5.83203125 C-85.72636566 -22.5989124 -29.19696675 -22.86829819 0 0 Z " fill="#F3F1ED" transform="translate(217,164)"/>
<path d="M0 0 C2.34597843 2.16797618 4.24240666 4.33661623 6 7 C6.40863281 7.61359375 6.81726563 8.2271875 7.23828125 8.859375 C10.29946768 14.1191455 10.80772839 19.0026167 10 25 C8.21984261 30.4451873 4.611739 33.78226393 0 37 C-3.47325181 38.1577506 -6.36067448 38.06866652 -10 38 C-9.835 36.741875 -9.67 35.48375 -9.5 34.1875 C-9.32179835 32.459484 -9.1559164 30.73016913 -9 29 C-8.92007813 28.13375 -8.84015625 27.2675 -8.7578125 26.375 C-8.29578372 17.02571181 -11.32600458 8.91714478 -17.1875 1.625 C-25.70250408 -7.25941857 -37.35151188 -11.49011181 -49.4453125 -12.203125 C-66.96719062 -12.42633364 -80.96259635 -7.14811594 -94.37109375 4.3671875 C-104.92183182 14.93360274 -113.30576613 29.54834299 -117 44 C-117.27714844 45.04929688 -117.55429687 46.09859375 -117.83984375 47.1796875 C-123.52941525 71.56356534 -119.5776496 98.5828632 -107.125 120.375 C-97.34635843 135.52680139 -84.57066307 147.42682992 -66.8125 152.3359375 C-50.86221839 155.11416278 -36.26988308 153.58182448 -22.5 144.6875 C-14.14394038 138.35881222 -8.28609845 129.00899913 -6.3203125 118.6796875 C-4.82511305 106.17106774 -5.82597446 96.55613575 -13.1875 86.25 C-20.26164542 77.73399055 -30.25339706 73.16903913 -41 71 C-43.4138176 70.77882441 -45.83114597 70.59427758 -48.25 70.4375 C-50.14492188 70.31181641 -50.14492188 70.31181641 -52.078125 70.18359375 C-53.04234375 70.12300781 -54.0065625 70.06242187 -55 70 C-55 68.68 -55 67.36 -55 66 C-33.55 66 -12.1 66 10 66 C10 67.32 10 68.64 10 70 C0.43 70.33 -9.14 70.66 -19 71 C-15.7 72.32 -12.4 73.64 -9 75 C-0.45444726 80.12733164 5.87569229 87.67415962 9.3046875 97.0390625 C12.01225977 108.56906126 10.36918694 120.48370069 4.421875 130.71484375 C2.72470086 133.25678249 0.93290482 135.63343064 -1 138 C-1.50015625 138.62519531 -2.0003125 139.25039063 -2.515625 139.89453125 C-11.87875951 150.36894687 -26.52813812 155.6346075 -40 158 C-43.91458226 158.21638577 -47.82998964 158.18512135 -51.75 158.1875 C-52.79671875 158.19974609 -53.8434375 158.21199219 -54.921875 158.22460938 C-61.24409995 158.23646355 -66.91072422 157.68792232 -73 156 C-73.64984863 155.83363037 -74.29969727 155.66726074 -74.96923828 155.49584961 C-96.41002173 149.86402681 -115.32725259 137.10539427 -127 118 C-139.08755672 96.65610204 -144.21070059 72.21576047 -138 48 C-130.91436017 23.93003161 -115.80174495 5.5572136 -94.3203125 -7.21484375 C-89.0464043 -10.05034498 -83.69433403 -12.16893522 -78 -14 C-77.05511719 -14.3196875 -76.11023438 -14.639375 -75.13671875 -14.96875 C-49.78229051 -22.22246722 -20.39464668 -16.35526375 0 0 Z " fill="#F3F1ED" transform="translate(382,166)"/>
</svg>
